<?xml version="1.0" standalone="no"?>
<!DOCTYPE svg PUBLIC "-//W3C//DTD SVG 20010904//EN"
 "http://www.w3.org/TR/2001/REC-SVG-20010904/DTD/svg10.dtd">
<svg version="1.0" xmlns="http://www.w3.org/2000/svg"
 width="5000.000000pt" height="3334.000000pt" viewBox="0 0 5000.000000 3334.000000"
 preserveAspectRatio="xMidYMid meet">

<g transform="translate(0.000000,3334.000000) scale(0.100000,-0.100000)"
fill="#000000" stroke="none">
<path d="M25155 29663 c-278 -39 -504 -224 -649 -535 -41 -87 -126 -316 -142
-383 -7 -27 -8 -25 -26 35 -10 36 -22 124 -27 195 -12 155 -36 240 -92 324
-48 73 -90 109 -181 156 -112 59 -246 78 -384 54 -59 -10 -72 -8 -211 27 -139
36 -157 38 -298 38 -411 0 -711 -145 -972 -469 -263 -326 -586 -937 -754
-1425 -233 -676 -416 -1698 -378 -2104 43 -451 327 -813 866 -1102 66 -36 102
-61 99 -69 -22 -59 -93 -328 -116 -445 -42 -212 -54 -333 -47 -508 5 -143 4
-158 -19 -223 -53 -157 -102 -436 -128 -734 -29 -319 -38 -600 -38 -1150 0
-555 -6 -732 -34 -879 -42 -221 -155 -476 -375 -846 -67 -113 -143 -250 -170
-305 -89 -186 -158 -426 -225 -788 l-39 -208 -330 -323 c-181 -177 -613 -596
-960 -931 -2199 -2128 -2786 -2737 -2946 -3060 -52 -104 -58 -177 -21 -237 57
-92 167 -108 342 -49 52 17 253 110 445 205 518 258 782 370 966 411 92 20
132 17 137 -9 11 -55 -66 -274 -221 -627 -98 -224 -135 -326 -168 -459 -20
-81 -23 -121 -23 -270 -1 -165 1 -180 27 -257 16 -48 49 -113 77 -155 35 -52
46 -75 37 -81 -7 -4 -82 -46 -167 -93 -175 -97 -388 -244 -368 -255 7 -4 101
-46 208 -95 245 -111 736 -356 855 -427 83 -49 90 -56 88 -83 -1 -16 -18 -155
-38 -309 -75 -604 -92 -846 -75 -1067 8 -87 17 -158 21 -158 4 0 81 44 171 99
772 467 1423 718 2133 820 213 31 438 49 790 66 434 20 563 43 745 133 161 79
273 211 316 372 35 132 20 329 -42 533 -80 268 -164 632 -148 647 21 19 513
141 826 204 693 140 1322 201 2063 200 750 0 1390 -64 2095 -209 286 -59 765
-178 783 -195 11 -10 -56 -313 -110 -499 -77 -266 -93 -339 -99 -461 -11 -209
36 -342 165 -471 175 -174 394 -236 891 -254 378 -13 632 -37 926 -85 655
-109 1256 -345 1981 -779 l211 -127 6 30 c3 17 9 114 12 216 9 247 -12 505
-87 1079 -26 195 -29 236 -17 247 44 44 544 300 945 484 112 51 201 96 198
100 -12 20 -217 159 -318 217 -144 81 -752 388 -1157 583 -173 83 -316 153
-318 155 -2 1 61 115 139 252 213 372 232 421 232 598 -1 118 -19 199 -69 305
-34 71 -37 85 -55 277 -83 893 -254 1887 -450 2619 -173 650 -359 1140 -604
1589 -284 523 -453 776 -631 944 -132 125 -250 172 -379 151 -201 -33 -353
-187 -700 -710 -212 -320 -311 -415 -432 -414 -42 0 -61 7 -105 36 -200 133
-405 531 -593 1153 -32 105 -68 211 -80 236 -30 58 -92 114 -164 147 -74 35
-211 42 -332 18 -86 -17 -279 -79 -359 -115 -25 -11 -48 -17 -51 -13 -3 4 -11
68 -18 142 -36 413 -136 909 -257 1284 -109 335 -275 688 -443 944 -168 254
-310 418 -536 617 -257 226 -335 328 -380 500 -31 119 -13 241 59 411 36 85
52 172 71 374 26 292 38 353 110 565 52 154 73 280 82 498 3 86 9 157 13 157
4 0 13 -12 20 -27 210 -445 445 -1137 500 -1473 20 -125 47 -194 93 -246 l44
-49 6 -230 c6 -238 18 -389 43 -560 26 -180 57 -235 133 -235 77 0 104 50 150
274 39 194 43 198 67 65 8 -45 18 -168 22 -273 10 -211 19 -244 71 -266 39
-16 84 -1 140 46 85 73 160 210 225 413 82 252 69 392 -65 740 -74 189 -80
234 -49 332 22 67 23 78 12 153 -7 45 -42 178 -78 296 -92 303 -154 550 -224
897 -115 574 -217 874 -465 1378 -116 235 -187 365 -399 732 -66 113 -87 158
-83 175 4 13 41 82 83 153 153 258 209 461 185 665 -29 245 -120 500 -243 683
-90 134 -247 265 -383 319 -100 40 -262 57 -380 41z m170 -355 c56 -51 115
-138 115 -169 0 -18 -26 -33 -41 -24 -4 3 -16 22 -25 41 -21 44 -93 125 -128
143 -25 14 -34 40 -19 54 16 17 45 3 98 -45z m165 -293 c16 -20 6 -45 -19 -45
-23 0 -32 18 -19 43 11 21 22 22 38 2z m-127 -891 c27 -3 151 -9 278 -13 l229
-6 -51 -85 c-29 -47 -61 -104 -71 -128 -14 -32 -24 -42 -36 -38 -32 10 -174
26 -183 20 -19 -11 -259 228 -259 258 0 6 10 8 23 5 12 -3 44 -9 70 -13z
m-423 -125 c52 -10 126 -29 164 -42 l68 -23 -56 -43 c-74 -57 -170 -160 -234
-251 -91 -129 -152 -270 -307 -705 -83 -232 -152 -355 -200 -355 -63 0 -149
212 -176 434 -16 132 2 292 49 427 64 184 206 388 371 534 l64 57 81 -7 c45
-4 124 -15 176 -26z m816 -321 c20 -40 94 -172 164 -293 353 -609 538 -1025
669 -1505 11 -41 48 -210 81 -375 83 -410 122 -563 236 -943 35 -117 64 -221
64 -232 0 -16 -7 -20 -37 -20 -21 0 -54 -3 -74 -6 l-37 -6 -22 58 c-12 33 -68
199 -125 369 -111 335 -193 536 -360 880 -58 121 -126 270 -151 332 -44 110
-67 213 -47 213 5 0 43 -29 84 -65 74 -66 109 -81 109 -47 0 32 -49 163 -86
231 -127 231 -341 474 -854 966 -103 98 -144 145 -168 191 -46 89 -43 104 31
179 105 105 206 143 384 144 l103 1 36 -72z m-745 -1585 c14 -65 19 -106 14
-112 -6 -5 -181 -77 -390 -161 -209 -84 -483 -195 -609 -246 -127 -51 -231
-92 -232 -91 -7 9 17 132 27 136 21 7 847 425 1004 509 83 43 153 77 157 73 3
-3 17 -52 29 -108z m-1046 -4228 c320 -131 754 -336 990 -468 131 -73 331
-207 395 -265 31 -27 67 -72 82 -98 88 -163 130 -591 142 -1464 l5 -335 -141
-110 c-530 -414 -1161 -990 -1563 -1427 -306 -333 -412 -425 -509 -435 -41 -5
-46 -3 -86 37 -67 67 -129 210 -251 585 -118 359 -171 499 -237 631 -63 125
-154 254 -232 328 l-72 67 102 277 c140 379 225 617 340 952 363 1058 602
1620 757 1782 l35 36 52 -18 c28 -9 114 -43 191 -75z m4575 -3890 c39 -20 60
-63 60 -121 0 -39 -5 -51 -34 -80 -29 -29 -41 -34 -83 -34 -55 0 -86 17 -108
60 -57 111 56 231 165 175z m-2530 -2215 c1900 -71 3733 -536 5394 -1367 243
-122 317 -199 352 -365 17 -82 12 -156 -15 -228 -15 -39 -991 -1762 -1011
-1783 -4 -4 -67 25 -141 64 -318 172 -740 367 -1114 514 -1006 398 -2019 630
-3135 721 -267 22 -1045 30 -1334 15 -1004 -54 -1965 -239 -2909 -561 -481
-164 -868 -327 -1365 -576 -357 -179 -363 -182 -377 -160 -7 11 -233 406 -501
876 -291 510 -495 879 -506 913 -33 106 -17 241 39 337 59 99 105 132 380 268
697 344 1502 656 1918 743 262 54 249 50 271 97 3 6 371 102 577 151 1132 266
2334 384 3477 341z m-7823 -783 c75 -67 40 -201 -59 -228 -104 -27 -194 92
-144 189 42 80 137 99 203 39z"/>
</g>
</svg>
